<?xml version="1.0"?>
<svg xmlns="http://www.w3.org/2000/svg" xmlns:xlink="http://www.w3.org/1999/xlink" version="1.1" id="Capa_1" x="0px" y="0px" viewBox="0 0 312.949 312.949" style="enable-background:new 0 0 312.949 312.949;" xml:space="preserve" width="512px" height="512px" class=""><g><path style="fill:#FFFFFC" d="M82.568,300.48c-16.876-0.108-30.472-13.876-30.368-30.752c0.008-1.232,0.092-2.464,0.248-3.688  l6.32-65.88l-44.56-50.48c-5.424-6.084-8.14-14.112-7.52-22.24c0.572-7.968,4.248-15.396,10.24-20.68  c3.932-3.488,8.724-5.86,13.88-6.88l65.32-14.48l34.16-58c5.424-9.296,15.4-14.984,26.16-14.92c5.424-0.06,10.764,1.32,15.48,4  c4.524,2.66,8.264,6.468,10.84,11.04l34.04,57.72l21.24,4.84c4.68,1.04,9.72,2.04,14.84,3.08c11.08,2.24,22.56,4.52,32,7.44  c16.036,4.976,24.996,22.012,20.02,38.048c-1.264,4.072-3.368,7.828-6.18,11.032l-44.6,50.48l6.32,67.08  c0.8,8.112-1.744,16.204-7.04,22.4c-5.104,6.14-12.416,10.032-20.36,10.84c-0.908,0-1.828,0-2.76,0  c-4.132-0.008-8.216-0.864-12-2.52l-61.84-26.84l-61.72,26.84c-3.784,1.664-7.868,2.536-12,2.56L82.568,300.48z" data-original="#FFE64C" class="" data-old_color="#FDFDFB"/><path style="fill:#9000D0" d="M156.648,224.16c-15.98,0.064-29.728-11.296-32.68-27l-0.84-4.68h66.72l-0.88,4.72  c-2.896,15.576-16.44,26.904-32.28,27L156.648,224.16z" data-original="#EB6B75" class="" data-old_color="#9000d0"/><g>
	<path style="fill:#FFFFFF" d="M103.568,155.36c10.08,10.04,25.36-5.2,15.28-15.28S93.528,145.28,103.568,155.36z" data-original="#FFFFFF" class="active-path" data-old_color="#ffffff"/>
	<path style="fill:#FFFFFF" d="M193.888,139.88c-4.304,4.32-4.292,11.308,0.028,15.612c4.32,4.304,11.308,4.292,15.612-0.028   c4.292-4.308,4.292-11.276,0-15.584c-4.304-4.32-11.296-4.332-15.612-0.028C193.908,139.86,193.896,139.872,193.888,139.88z" data-original="#FFFFFF" class="active-path" data-old_color="#ffffff"/>
</g><path style="fill:#C6C6C6" d="M82.568,300.48c-16.876-0.108-30.472-13.876-30.368-30.752c0.008-1.232,0.092-2.464,0.248-3.688  l6.32-65.88l-44.56-50.48c-5.424-6.084-8.14-14.112-7.52-22.24c0.572-7.968,4.248-15.396,10.24-20.68  c3.932-3.488,8.724-5.86,13.88-6.88l65.32-14.48l34.16-58c5.424-9.296,15.4-14.984,26.16-14.92V189.8h-34.32  c-0.728,0-1.32,0.592-1.32,1.32l0,0c-0.06,9.52,3.72,18.66,10.48,25.36c6.516,6.72,15.48,10.504,24.84,10.48l0.32,44.16  l-61.72,26.84C90.892,299.632,86.752,300.488,82.568,300.48z M111.248,134.4c-7.38,0.028-13.336,6.036-13.308,13.412  c0.016,3.5,1.404,6.86,3.868,9.348c2.408,2.532,5.744,3.976,9.24,4c7.368,0.404,13.668-5.24,14.072-12.608  s-5.24-13.668-12.608-14.072c-0.488-0.028-0.976-0.028-1.46,0L111.248,134.4z" data-original="#F9C65B" class="" data-old_color="#F9C65B"/><path style="fill:#000000" d="M207.968,78.24l-28.56-48.44l0,0c-2.244-4.012-5.516-7.352-9.48-9.68  c-4.02-2.344-8.584-3.6-13.24-3.64c-4.664-0.06-9.256,1.112-13.32,3.4c-4.008,2.292-7.332,5.604-9.64,9.6l-33.88,57.44l-1.16,2  l-2.24,0.48l-64.56,14.32l0,0c-4.46,0.908-8.6,2.98-12,6c-3.464,3.08-6.072,7.008-7.56,11.4c-1.504,4.4-1.82,9.12-0.92,13.68  c0.916,4.54,3.028,8.752,6.12,12.2l43.92,50.08l1.52,1.72l-0.2,2.28l-6.32,65.36l0,0c-0.692,4.764-0.044,9.628,1.88,14.04  c1.844,4.208,4.736,7.868,8.4,10.64c3.636,2.848,7.952,4.692,12.52,5.36c4.724,0.62,9.524-0.072,13.88-2l61.24-26.8l2.12-0.92  l2.12,0.92l61.24,26.6l0,0c4.032,1.776,8.452,2.492,12.84,2.08c4.724-0.468,9.236-2.176,13.08-4.96c3.86-2.784,6.9-6.556,8.8-10.92  c1.76-4.08,2.448-8.54,2-12.96l-6.4-66.56l-0.2-2.28l1.52-1.72l44.24-49.92c2.508-2.804,4.38-6.12,5.48-9.72  c2.948-9.916-0.072-20.64-7.76-27.56c-2.796-2.432-6.084-4.232-9.64-5.28c-9.36-2.84-20.84-5.16-31.8-7.36  c-5.16-1.04-10.24-2.04-14.84-3.08l-20.72-4.64l-2.24-0.48l-1.16-2L207.968,78.24z M122.128,185.8h68.68c2.94,0,5.32,2.38,5.32,5.32  l0,0c-0.004,21.892-17.752,39.636-39.648,39.632c-21.888-0.004-39.632-17.748-39.632-39.632  C116.848,188.196,119.204,185.82,122.128,185.8z M156.448,196.48h-28.52c2.904,15.772,18.044,26.204,33.82,23.3  c11.848-2.18,21.12-11.452,23.3-23.3H156.448z M116.008,142.96c-2.628-2.628-6.892-2.628-9.52,0s-2.628,6.892,0,9.52l0,0l0,0  c2.644,2.592,6.876,2.592,9.52,0l0,0C118.62,149.844,118.62,145.596,116.008,142.96z M111.248,130.4  c9.564,0.008,17.312,7.768,17.304,17.336c-0.004,4.584-1.824,8.98-5.064,12.224l0,0c-6.748,6.748-17.688,6.752-24.436,0.004  c0,0,0,0-0.004-0.004l0,0c-6.756-6.764-6.756-17.716,0-24.48l0,0C102.28,132.232,106.668,130.404,111.248,130.4z M206.448,142.96  c-2.62-2.628-6.876-2.636-9.504-0.016c-0.004,0.004-0.012,0.012-0.016,0.016l0,0c-2.592,2.644-2.592,6.876,0,9.52l0,0  c2.644,2.592,6.876,2.592,9.52,0l0,0C209.06,149.844,209.06,145.596,206.448,142.96z M201.688,130.4  c9.564,0.008,17.312,7.768,17.304,17.336c-0.004,4.584-1.824,8.98-5.064,12.224l0,0c-6.748,6.748-17.688,6.752-24.436,0.004  c0,0,0,0-0.004-0.004l0,0c-6.76-6.736-6.78-17.676-0.044-24.436c0.016-0.016,0.028-0.028,0.044-0.044l0,0  C192.72,132.236,197.108,130.408,201.688,130.4z M188.448,24.48l28.52,48.4l4,6.68l18.44,4c4.64,1.04,9.6,2.04,14.64,3.04  c11.2,2.24,22.96,4.6,32.8,7.6c5.028,1.508,9.668,4.088,13.6,7.56c10.876,9.676,15.124,24.796,10.88,38.72  c-1.544,5.048-4.164,9.7-7.68,13.64l-42.72,48.24l6.16,64.28c0.68,6.18-0.228,12.432-2.64,18.16  c-5.48,12.332-17.168,20.764-30.6,22.08c-6.176,0.584-12.4-0.42-18.08-2.92l0,0l-59.32-25.68l-59.12,25.68  c-6.112,2.704-12.852,3.672-19.48,2.8c-12.968-1.732-24.1-10.08-29.4-22.04c-2.644-6.088-3.572-12.784-2.68-19.36l6.04-63  l-42.52-48.32c-4.344-4.852-7.312-10.776-8.6-17.16c-1.248-6.38-0.792-12.972,1.32-19.12c2.068-6.16,5.708-11.676,10.56-16  c4.864-4.304,10.788-7.232,17.16-8.48l0,0l62.2-13.8l32.52-55.4c3.248-5.6,7.928-10.24,13.56-13.44  c5.672-3.196,12.088-4.836,18.6-4.76c6.496,0.056,12.868,1.808,18.48,5.08C180.66,14.204,185.268,18.872,188.448,24.48z" data-original="#98402F" class="" data-old_color="#FF0000"/></g> </svg>
