<?xml version="1.0"?>
<svg xmlns="http://www.w3.org/2000/svg" xmlns:xlink="http://www.w3.org/1999/xlink" version="1.1" id="Capa_1" x="0px" y="0px" viewBox="0 0 363.2 363.2" style="enable-background:new 0 0 363.2 363.2;" xml:space="preserve" width="512px" height="512px" class=""><g><path style="fill:#FCF9F9" d="M83,7.2C62.6,7.2,45.8,24,45.8,44.4V318c0,20.4,16.8,37.2,37.2,37.2h197.2  c20.4,0,37.2-16.8,37.2-37.2V83.6L249.8,7.2H83z" data-original="#F4F4F4" class="" data-old_color="#F9F7F7"/><polygon style="fill:#C6C6C6" points="249.8,83.6 317.8,83.6 249.8,7.2 " data-original="#C6C6C6" class=""/><path style="fill:#9000D0" d="M251.4,158.8l-37.6-6.4c-2.8-0.4-6.4-3.2-8-5.6l-17.6-34c-1.6-2.8-4-4.4-6.4-4.4  c-2.8,0-4.8,1.6-6.4,4.4l-17.6,34c-1.2,2.4-5.2,5.2-8,5.6l-37.6,6.4c-3.2,0.4-5.6,2.4-6.4,4.8c-0.8,2.4,0,5.2,2.4,7.6l26.8,27.2  c2,2,3.2,6.4,2.8,9.2l-5.6,38c-0.4,3.2,0.4,5.2,1.6,6.4c2,2.4,5.6,2.8,8.8,1.2l34.4-16.8c2.4-1.2,7.2-1.2,9.6,0l34.4,16.8  c1.2,0.8,2.8,1.2,4,1.2c2,0,3.6-0.8,4.8-2c0.8-1.2,2-3.2,1.6-6.4l-5.6-38.4c-0.4-2.8,1.2-7.2,2.8-9.2l26.8-27.2  c2.4-2.4,3.2-5.2,2.4-7.6C257,161.2,254.6,159.2,251.4,158.8z" data-original="#FFCD00" class="" data-old_color="#9000d0"/><g>
	<path style="fill:#060606" d="M323.8,80c-0.4-0.4-0.4-0.8-0.8-1.2L255,2.4l0,0c-0.4-0.4-1.2-0.8-1.6-1.2c-0.4,0-0.4-0.4-0.8-0.4   c-0.8-0.4-2-0.8-2.8-0.8H83C58.2,0,38.2,20,38.2,44.8v273.6c0,24.8,20,44.8,44.8,44.8h197.2c24.8,0,44.8-20,44.8-44.8V83.6   c0-0.8-0.4-2-0.4-2.8C324.2,80.4,324.2,80,323.8,80z M257,26.8L301,76h-44V26.8z M310.2,318c0,16.4-13.2,29.6-29.6,29.6H83   c-16.4,0-29.6-13.2-29.6-29.6V44.4C53.4,28,66.6,14.8,83,14.8h159.2v68.8c0,4,3.2,7.6,7.6,7.6h60.4V318z" data-original="#191919" class="active-path" data-old_color="#080808"/>
	<path style="fill:#060606" d="M253,151.6l-37.6-6.4c-0.8,0-2-1.2-2.4-2l-18-34c-2.8-5.2-7.6-8.4-13.2-8.4   c-5.2,0-10.4,3.2-13.2,8.4L151,142.8c-0.4,0.8-2,1.6-2.4,2l-37.6,6.4c-6,1.2-10.4,4.8-12,9.6c-1.6,5.2,0,10.8,4,15.2l26.8,27.2   c0.4,0.4,1.2,2.4,1.2,2.8l-5.6,38c-0.8,4.8,0.4,9.2,3.2,12.4c4.4,4.8,11.6,6,18,2.8l34-16.8c0,0,0.8,0,1.6,0l0,0   c0.8,0,1.6,0.4,1.6,0l34.4,16.8c2.4,1.2,4.8,2,7.6,2c4,0,8-1.6,10.4-4.8c2.8-3.2,4-7.6,3.2-12.4l-5.6-37.6c0-0.8,0.4-2.4,0.8-2.8   l26.8-27.2c4-4.4,5.6-10,4-15.2C263.4,156,258.6,152.4,253,151.6z M223.4,193.2c-3.6,3.6-5.6,10.4-5.2,15.6l5.6,37.6l-34-16.8   c-2.8-1.2-6-1.6-8-1.6s-5.2,0.4-8,1.6l-34,16.8l5.6-37.6c0.8-5.2-1.6-11.6-5.2-15.6L113.8,166l37.6-6.4c5.2-0.8,10.8-4.8,13.2-9.6   l17.6-33.6l17.6,33.6c2.4,4.4,8,8.8,13.2,9.6l37.6,6.4L223.4,193.2z" data-original="#191919" class="active-path" data-old_color="#080808"/>
</g></g> </svg>
