<?xml version="1.0"?>
<svg xmlns="http://www.w3.org/2000/svg" xmlns:xlink="http://www.w3.org/1999/xlink" version="1.1" id="Capa_1" x="0px" y="0px" viewBox="0 0 498.332 498.332" style="enable-background:new 0 0 498.332 498.332;" xml:space="preserve" width="512px" height="512px" class=""><g><path style="fill:#FFFFFF" d="M202.355,198.447l8.777,228.206c1.463,30.72-23.406,57.051-54.126,57.051l0,0  c-30.72,0-55.589-26.331-54.126-57.051l8.777-228.206c-33.646-16.091-55.589-51.2-55.589-89.234c0-40.96,24.869-77.531,61.44-92.16  v77.531h80.457V17.052c35.109,16.091,61.44,51.2,59.977,92.16C257.943,147.247,236,182.355,202.355,198.447z" data-original="#77C587" class="active-path" data-old_color="#ffffff"/><path style="fill:#030303;" d="M157.006,498.332L157.006,498.332c-39.497,0-70.217-33.646-68.754-73.143l8.777-219.429  c-33.646-20.48-55.589-57.051-55.589-98.011c0-45.349,27.794-87.771,70.217-106.789c4.389-1.463,10.24-1.463,13.166,1.463  c4.389,2.926,7.314,7.314,7.314,11.703v62.903h51.2V14.127c0-4.389,2.926-10.24,7.314-11.703c4.389-2.926,8.777-2.926,13.166-1.463  c42.423,17.554,70.217,59.977,70.217,106.789c0,39.497-21.943,77.531-55.589,98.011l7.314,219.429  C228.686,464.687,197.966,498.332,157.006,498.332z M102.88,41.921C82.4,58.012,70.698,81.418,70.698,107.749  c0,32.183,19.017,62.903,46.811,76.069c5.851,2.926,8.777,7.314,8.777,13.166l-8.777,229.669  c-1.463,23.406,17.554,42.423,39.497,42.423v14.629v-14.629c23.406,0,40.96-19.017,39.497-40.96l-8.777-229.669  c0-5.851,2.926-11.703,8.777-13.166c29.257-14.629,46.811-43.886,46.811-76.069c0-26.331-11.703-51.2-32.183-67.291v51.2  c0,4.389-1.463,7.314-4.389,10.24s-5.851,4.389-10.24,4.389l0,0h-80.457c-8.777,0-14.629-5.851-14.629-14.629L102.88,41.921z" data-original="#030303" class=""/><path style="fill:#9000D0" d="M145.303,439.818c-5.851-7.314-5.851-16.091,0-21.943c5.851-5.851,16.091-5.851,21.943,0  c5.851,5.851,5.851,16.091,0,21.943C162.858,447.132,152.618,447.132,145.303,439.818z" data-original="#08A650" class="" data-old_color="#9000d0"/><polygon style="fill:#C6C6C6" points="417.395,85.807 404.229,137.007 404.229,292.069 348.64,292.069 348.64,137.007   335.475,85.807 348.64,15.589 404.229,15.589 " data-original="#C0D0D6" class="" data-old_color="#FFFFFF"/><path style="fill:#030303;" d="M404.229,306.698H348.64c-8.777,0-14.629-5.851-14.629-14.629v-153.6l-11.703-49.737  c0-1.463,0-4.389,0-5.851l13.166-70.217c1.463-7.314,7.314-11.703,14.629-11.703h57.051c7.314,0,13.166,4.389,14.629,11.703  l10.24,70.217c0,1.463,0,4.389,0,5.851l-11.703,49.737v153.6C418.858,299.384,411.543,306.698,404.229,306.698z M363.269,277.441  H389.6V137.007c0-1.463,0-2.926,0-2.926l13.166-49.737l-10.24-54.126h-32.183l-10.24,54.126l11.703,48.274c0,1.463,0,2.926,0,2.926  L363.269,277.441z" data-original="#030303" class=""/><path id="SVGCleanerId_0" style="fill:#9000D0" d="M410.08,483.704h-67.291c-17.554,0-32.183-14.629-32.183-32.183V290.607h131.657  v162.377C442.263,469.075,427.635,483.704,410.08,483.704z" data-original="#F15E75" class="" data-old_color="#9000d0"/><g>
	<path id="SVGCleanerId_0_1_" style="fill:#9000D0" d="M410.08,483.704h-67.291c-17.554,0-32.183-14.629-32.183-32.183V290.607   h131.657v162.377C442.263,469.075,427.635,483.704,410.08,483.704z" data-original="#F15E75" class="" data-old_color="#9000d0"/>
</g><rect x="310.606" y="290.607" style="fill:#9000D0" width="131.657" height="96.549" data-original="#EF3956" class="" data-old_color="#9000d0"/><rect x="310.606" y="290.607" style="fill:#9000D0" width="131.657" height="68.754" data-original="#F58570" class="" data-old_color="#9000d0"/><g>
	<path style="fill:#030303;" d="M410.08,498.332h-67.291c-24.869,0-46.811-20.48-46.811-46.811V290.607   c0-8.777,5.851-14.629,14.629-14.629h131.657c8.777,0,14.629,5.851,14.629,14.629v160.914   C456.892,477.852,436.412,498.332,410.08,498.332z M325.235,305.235v146.286c0,8.777,7.314,17.554,17.554,17.554h67.291   c8.777,0,17.554-7.314,17.554-17.554V305.235H325.235z" data-original="#030303" class=""/>
	<path style="fill:#030303;" d="M442.263,371.064H310.606c-8.777,0-14.629-5.851-14.629-14.629c0-8.777,5.851-14.629,14.629-14.629   h131.657c8.777,0,14.629,5.851,14.629,14.629C456.892,365.212,449.578,371.064,442.263,371.064z" data-original="#030303" class=""/>
</g></g> </svg>
